<svg width="397" height="155" viewBox="0 0 397 155" fill="none" xmlns="http://www.w3.org/2000/svg">
<path d="M4 103.016C4 100.76 4.43442 98.5509 4.78282 96.3299C5.64193 90.853 6.01834 85.3646 7.2582 79.9542C8.54645 74.3328 8.09669 68.403 9.12003 62.7746C10.3001 56.2843 11.8206 49.9219 12.7591 43.3523C13.4484 38.5268 12.9632 33.6432 13.4361 28.7962C13.9684 23.3397 13.5207 17.6472 13.5207 12.1667V7.72368C13.5207 5.77229 15.2514 6.66582 16.9482 6.66582C20.6168 6.66582 24.082 5.52333 27.7383 5.52333C31.1567 5.52333 34.3177 5.0079 37.7034 4.76167C45.974 4.16017 54.4413 4.00002 62.7323 4.00002L62.9706 4.00001C68.1463 3.99976 73.0969 3.99952 78.177 5.05787C82.6753 5.99502 91.7725 8.71698 92.3312 14.3036C93.092 21.9121 85.2035 27.12 80.1658 31.6101C74.4586 36.697 68.3803 41.7034 62.2245 46.2297C56.6595 50.3217 50.1244 53.2463 43.8178 55.9832C40.1058 57.594 36.2677 59.4989 32.2576 60.2391M32.2576 60.2391C32.0563 60.2762 31.8546 60.3104 31.6524 60.3415C31.3746 60.3843 31.6975 60.3336 32.2576 60.2391ZM32.2576 60.2391C33.2457 60.0723 34.9719 59.7689 35.4395 59.601C40.2929 57.8588 45.2046 56.4302 50.1649 55.0311C55.4568 53.5385 61.7239 53.1713 67.2176 53.1269C72.9105 53.081 76.3311 53.9875 80.5466 57.7815C83.2984 60.2582 84.7357 64.6823 84.7357 68.3601C84.7357 70.6482 83.1526 73.3602 82.4085 75.4478C80.616 80.4766 78.5957 85.2502 75.6382 89.6865C71.8564 95.3592 68.1688 100.138 62.9227 104.602L62.6167 104.863C53.5943 112.542 44.6948 120.116 34.9741 126.902C26.9283 132.519 19.3527 138.668 11.8705 145.034C9.85192 146.751 7.02164 148.753 5.52332 151M160.451 15.1751C160.451 19.0238 161.556 22.6701 162.144 26.4519C162.935 31.5382 162.667 36.6759 164.641 41.5792C166.695 46.6851 166.782 52.5842 167.856 57.9549C169.201 64.6773 169.732 71.5499 171.263 78.1811C172.227 82.3576 173.571 86.516 174.246 90.7485C174.622 93.1102 176.065 94.3453 176.065 96.8841C176.065 101.057 177.589 105.06 177.589 109.24M242.667 19.6451C237.925 21.903 233.331 24.4477 228.576 26.6693C222.074 29.707 216.758 34.5421 210.254 37.5441C205.837 39.5827 201.254 41.7315 197.179 44.399C193.605 46.7385 190.281 49.4252 186.389 51.2539C180.718 53.9184 175.944 57.7068 171.092 61.3459C169.685 62.401 168.503 63.3248 170.309 64.2021C171.872 64.9609 173.058 66.1376 174.498 67.0795C176.149 68.1588 178.372 68.7757 180.211 69.4491C187.334 72.0577 194.482 74.1354 200.945 78.2716C202.414 79.212 204.05 79.7656 205.346 80.9586C207.069 82.5456 209.521 84.0692 211.65 84.9785C214.508 86.1984 217.681 87.4323 220.24 89.2099C222.241 90.5995 223.853 92.6403 226.058 93.6952C227.637 94.4503 228.153 96.2999 230.1 96.1918C231.219 96.1296 231.944 94.7913 232.554 94.0337C234.333 91.8212 236.084 89.5341 237.335 86.9672C239.934 81.6357 242.312 76.4359 244.381 70.8666C245.425 68.054 245.678 65.0666 246.856 62.3191C247.695 60.3615 248.261 58.2771 248.739 56.2047C249.3 53.7736 250.148 51.1168 251.341 48.969C252.149 47.5142 253.194 45.9492 253.711 44.399M254.322 96.9346C256.534 94.2802 257.935 90.4852 259.527 87.4774C262.491 81.8783 266.235 76.4224 268.836 70.6574C270.564 66.8284 271.479 62.6256 272.983 58.7036C274.276 55.3313 275.702 52.005 276.558 48.4847C276.976 46.7703 277.553 45.0259 277.553 43.2589C277.553 41.0508 279.027 42.7086 279.542 43.8725C284.649 55.4121 290.106 66.7273 295.452 78.1471C299.074 85.8842 302.16 94.1756 304.126 102.478C304.51 104.097 304.964 104.932 305.65 106.455C306.337 107.983 307.05 104.382 307.258 103.684C308.835 98.3785 310.172 92.9835 311.468 87.6043C313.073 80.9415 314.557 74.2959 316.63 67.7589C317.865 63.8639 320.249 60.0806 322.025 56.3975C323.041 54.2901 323.993 52.1397 324.987 50.0927C325.798 48.4241 325.737 46.1687 326.511 44.4014C327.412 42.3399 328.584 39.7472 328.584 37.5253M393.319 37.5253C389.076 38.328 385.038 41.0689 380.921 42.4549C377.035 43.763 373.051 44.7609 369.115 45.9035C363.331 47.5827 357.07 49.1475 351.639 51.7852C348.319 53.3981 342.837 56.422 341.23 59.9942C340.119 62.4638 340.064 64.3588 340.003 67.0607C339.954 69.2119 339.159 71.2199 339.262 73.3867C339.357 75.3672 339.457 77.4491 339.707 79.4165C340.246 83.6747 342.072 88.8695 343.896 92.7455C345.597 96.361 348.135 98.3188 351.258 100.722C353.593 102.517 356.357 102.602 359.171 103.028C361.684 103.408 364.204 103.982 366.745 103.578C371.897 102.758 378.404 101.071 382.465 97.5905C389.892 91.2249 392.217 80.5229 393.128 71.2287C393.829 64.0858 390.857 57.1044 385.681 52.1872C383.734 50.3375 381.007 49.8349 378.488 49.331C377.277 49.0888 376.705 48.1885 375.42 48.1885M101.504 53.1704C101.504 56.1502 101.573 59.1401 101.504 62.1191C101.445 64.6518 100.293 66.9417 100.293 69.5203C100.293 73.3314 99.082 76.7082 99.082 80.5547C99.082 84.5271 99.2907 88.565 99.082 92.5311C99.0019 94.0527 97.8709 95.3334 97.8709 96.7699V101.009M132.563 43.2064C132.214 46.3445 128.156 49.3328 126.81 52.3233C125.763 54.6494 123.423 58.2129 122.908 60.5319C121.422 67.2148 119.189 75.6135 120.754 82.4998C121.619 86.305 122.47 90.008 124.354 93.4333C125.486 95.4917 126.365 100.334 128.627 101.339C131.374 102.56 131.891 104.127 135.288 103.728C139.229 103.264 144.423 101.165 147.399 98.6478C151.704 95.0049 154.362 86.9282 154.362 81.356C154.362 73.6129 155.336 64.5966 151.671 57.4705C150.119 54.4519 148.96 51.2613 147.567 48.32C146.948 47.0129 143.607 43.321 142.117 43.2064C139.85 43.0321 138.025 41.9953 135.59 41.9953C133.973 41.9953 132.691 42.5366 131.352 43.2064" stroke="white" stroke-width="6.70506" stroke-linecap="round"/>
</svg>
