<?xml version="1.0" encoding="UTF-8"?><svg id="Layer_2" xmlns="http://www.w3.org/2000/svg" viewBox="0 0 135 128.82"><defs><style>.cls-1{fill:#fff;stroke-width:0px;}</style></defs><g id="Layer_2-2"><path class="cls-1" d="M135,64.41c0,6.53-14.69,10.65-16.6,16.54-1.98,6.1,7.41,18.06,3.71,23.14s-18.03-.13-23.17,3.61c-5.08,3.7-4.48,18.94-10.58,20.92-5.89,1.91-14.34-10.71-20.86-10.71s-14.97,12.62-20.86,10.71-5.5-17.23-10.58-20.92-19.43,1.52-23.17-3.61c-3.7-5.08,5.69-17.04,3.71-23.14-1.91-5.89-16.6-10.01-16.6-16.54s14.69-10.65,16.6-16.54c1.98-6.1-7.41-18.06-3.71-23.14,3.73-5.13,18.03.13,23.17-3.61S40.53,2.18,46.64.2c5.89-1.91,14.34,10.71,20.86,10.71S82.47-1.71,88.36.2s5.5,17.23,10.58,20.92,19.43-1.52,23.17,3.61-5.69,17.04-3.71,23.14c1.91,5.89,16.6,10.01,16.6,16.54Z"/></g></svg>