<?xml version="1.0" encoding="UTF-8"?><svg id="Layer_2" xmlns="http://www.w3.org/2000/svg" viewBox="0 0 207 197.78"><defs><style>.cls-1,.cls-2{stroke-width:0px;}.cls-2{fill:#fff;}</style></defs><g id="Layer_2-2"><path class="cls-2" d="M207,98.89c0,10.31-17.08,17.8-20.1,27.1-3.13,9.64,6.18,25.72.34,33.74-5.9,8.11-24.1,4.19-32.21,10.09s-9.89,24.4-19.53,27.53c-9.3,3.02-21.68-10.8-31.99-10.8s-22.69,13.82-31.99,10.8-11.51-21.69-19.53-27.53c-8.11-5.9-26.31-1.98-32.21-10.09-5.84-8.03,3.47-24.1.34-33.74S0,109.2,0,98.89s17.08-17.8,20.1-27.1c3.13-9.64-6.18-25.72-.34-33.74s24.1-4.19,32.21-10.09S61.87,3.56,71.51.43c9.3-3.02,21.68,10.8,31.99,10.8S126.19-2.59,135.49.43s11.51,21.69,19.53,27.53c8.11,5.9,26.31,1.98,32.21,10.09,5.84,8.03-3.47,24.1-.34,33.74s20.1,16.79,20.1,27.1Z"/><path class="cls-1" d="M49.69,92.21l4.65-1.23,4.01,23.15c.51,3.05.94,6.37,1.07,7.73l.22-.06c.12-1.52.75-6.91,1-8.36l2.34-14.65,3.76-.99,3.84,11.01c.78,2.23,2.26,6.68,2.95,9.15l.31-.08c-.07-1.38-.22-6.53-.2-8.01l.6-24.13,4.65-1.23-1.57,37.25-5.8,1.53-4.21-13.06c-.67-2.05-1.52-4.83-1.93-6.52l-.24.06c-.07,1.89-.26,4.88-.59,7.18l-2.03,14.71-6.01,1.59-6.81-35.04Z"/><path class="cls-1" d="M84.11,106c-2.95-11.18.69-23.67,10.87-26.35,7.05-1.86,12.65,2.42,14.84,10.72,2.95,11.18-.64,23.65-10.81,26.34-7.06,1.86-12.72-2.44-14.9-10.71ZM104.71,91.37c-1.5-5.7-4.55-8.54-9.06-7.35-6.91,1.82-8.78,12.07-6.44,20.94,1.5,5.69,4.57,8.58,9.14,7.37,6.91-1.82,8.72-12.05,6.37-20.96Z"/><path class="cls-1" d="M112.69,75.59l4.65-1.23,4.01,23.15c.51,3.05.94,6.37,1.07,7.73l.22-.06c.12-1.52.75-6.91,1-8.36l2.34-14.65,3.76-.99,3.84,11.01c.78,2.23,2.26,6.68,2.95,9.15l.31-.08c-.07-1.38-.22-6.53-.2-8.01l.6-24.13,4.65-1.23-1.57,37.25-5.8,1.53-4.21-13.06c-.67-2.05-1.52-4.83-1.93-6.52l-.24.06c-.07,1.89-.26,4.88-.59,7.18l-2.03,14.71-6.01,1.59-6.81-35.04Z"/><path class="cls-1" d="M157.19,97.58c-.69-2.61.75-5.47,3.4-6.17,1.98-.52,3.75.6,4.3,2.68.69,2.61-.76,5.43-3.41,6.13-1.98.52-3.74-.55-4.29-2.64ZM156.83,69l-.53-5.75,5.07-1.34.39,5.79.23,18.31-3.33.88-1.82-17.89Z"/></g></svg>